<?xml version="1.0" encoding="utf-8"?>
<!-- Generator: Adobe Illustrator 21.1.0, SVG Export Plug-In . SVG Version: 6.00 Build 0)  -->
<svg version="1.1" id="Layer_1" xmlns="http://www.w3.org/2000/svg" xmlns:xlink="http://www.w3.org/1999/xlink" x="0px" y="0px"
	 viewBox="0 0 300 150" style="enable-background:new 0 0 300 150;" xml:space="preserve">
<style type="text/css">
	.st0{fill:url(#SVGID_1_);}
	.st1{fill:url(#SVGID_2_);}
	.st2{fill:url(#SVGID_3_);}
	.st3{fill:url(#SVGID_4_);}
	.st4{fill:url(#SVGID_5_);}
</style>
<linearGradient id="SVGID_1_" gradientUnits="userSpaceOnUse" x1="-0.369" y1="8.5409" x2="114.8093" y2="109.1703">
	<stop  offset="0" style="stop-color:#E74C3C"/>
	<stop  offset="1" style="stop-color:#F9AA2B"/>
</linearGradient>
<polygon class="st0" points="3.4,0 90,150 119,99.8 61.4,0 "/>
<linearGradient id="SVGID_2_" gradientUnits="userSpaceOnUse" x1="119" y1="0.76" x2="119" y2="102.6019">
	<stop  offset="0" style="stop-color:#F9AA2B"/>
	<stop  offset="1" style="stop-color:#F1C40F"/>
</linearGradient>
<polygon class="st1" points="61.4,0 119,99.8 176.6,0 "/>
<g>
	<linearGradient id="SVGID_3_" gradientUnits="userSpaceOnUse" x1="126.7013" y1="105.4083" x2="244.6826" y2="4.6326">
		<stop  offset="0" style="stop-color:#F1C40F"/>
		<stop  offset="1" style="stop-color:#2ECC71"/>
	</linearGradient>
	<path class="st2" d="M232.5,0h-0.9h-55.1L119,99.8l29,50.2l20-34.6L234.6,0C233.9,0,233.2,0,232.5,0z"/>
	<linearGradient id="SVGID_4_" gradientUnits="userSpaceOnUse" x1="122.3001" y1="95.0476" x2="235.916" y2="-1.9993">
		<stop  offset="0" style="stop-color:#F1C40F"/>
		<stop  offset="1" style="stop-color:#2ECC71"/>
	</linearGradient>
	<path class="st3" d="M232.5,0c0.7,0,1.4,0,2.1,0"/>
	<linearGradient id="SVGID_5_" gradientUnits="userSpaceOnUse" x1="172.6596" y1="95.2196" x2="320.3612" y2="50.2669">
		<stop  offset="0.2599" style="stop-color:#2ECC71"/>
		<stop  offset="1" style="stop-color:#3498DB"/>
	</linearGradient>
	<path class="st4" d="M298,37.8C285.3,15.9,261.8,0.9,234.6,0L168,115.4c13.5,20.8,37.1,34.6,64,34.6c28,0,52.5-15,65.6-37.2
		L232,75.4L298,37.8z"/>
</g>
</svg>
