<?xml version="1.0" encoding="utf-8"?>
<!-- Generator: Adobe Illustrator 21.1.0, SVG Export Plug-In . SVG Version: 6.00 Build 0)  -->
<svg version="1.1" id="Layer_1" xmlns="http://www.w3.org/2000/svg" xmlns:xlink="http://www.w3.org/1999/xlink" x="0px" y="0px"
	 viewBox="0 0 234 51" style="enable-background:new 0 0 234 51;" xml:space="preserve">
<style type="text/css">
	.st0{fill:#34495E;}
</style>
<g>
	<path class="st0" d="M30.9,36.8c-0.1-0.6-0.3-1.6-0.7-2.4l-3.7-10.9c-0.1-0.3-0.2-0.4-0.6-2.3c-0.3,1.2-0.5,1.9-0.6,2.3l-3.7,10.8
		c-0.3,1-0.6,1.9-0.7,2.4h-2.1c-0.2-0.8-0.2-0.8-0.7-2.5L14.5,22c-0.3-1.2-1-3-1.4-4.1h2.7c0.1,1.2,0.3,2.3,0.9,3.9l2.8,9.3
		c0.2,0.8,0.3,1,0.6,2.5c0.3-1,0.6-2.2,0.7-2.4l3.7-10.7c0.3-1.1,0.6-1.8,0.6-2.4h2c0.1,0.6,0.3,1.4,0.6,2.4l3.7,10.8
		c0,0.1,0.3,0.9,0.7,2.3c0.2-1,0.4-2,0.6-2.3l2.8-9.5c0.4-1.6,0.7-2.9,0.8-3.8h2.7c-0.3,0.7-0.5,1.4-1.4,4.1l-3.8,12.2
		c-0.3,1.3-0.6,1.9-0.7,2.4L30.9,36.8L30.9,36.8z"/>
	<path class="st0" d="M43.1,27.6c0.1,2.4,0.5,4,1.5,5.2c1.2,1.7,3,2.5,5.1,2.5c1.9,0,3.7-0.8,4.8-2.1c0.5-0.6,0.8-1,1.2-2.2l2.1,0.9
		c-0.8,1.5-1.1,2.1-1.9,2.9c-1.6,1.6-3.7,2.4-6.2,2.4c-5.3,0-8.8-3.8-8.8-9.8c0-5.9,3.3-9.8,8.4-9.8c4.4,0,7.5,2.8,8.2,7.2
		c0.1,0.3,0.2,1.3,0.3,2.9L43.1,27.6L43.1,27.6z M55.5,25.7c-0.2-1.7-0.5-2.9-1.3-3.9c-1.1-1.5-2.9-2.3-4.8-2.3
		c-3.4,0-5.7,2.3-6.3,6.3H55.5z"/>
	<path class="st0" d="M64.5,19c0,1,0,1.7-0.2,2.8c1.5-2.8,3.9-4.2,7.2-4.2c5.3,0,8.5,3.7,8.5,9.7c0,6.1-3.2,9.8-8.5,9.8
		c-3.3,0-5.8-1.4-7.2-4.1c0.1,0.9,0.1,1.3,0.1,1.9v1.8h-2.3c0.2-1.3,0.3-2.3,0.3-3.9V14c0-1.4-0.1-2.5-0.3-3.8h2.6
		c-0.2,1.3-0.3,2.3-0.3,3.8L64.5,19L64.5,19z M71.5,19.5c-4.3,0-7,3-7,7.8s2.8,7.9,7,7.9c4,0,6.4-3,6.4-7.9S75.5,19.5,71.5,19.5z"/>
	<path class="st0" d="M97.9,23.5c-1-2.9-2.8-4.2-5.6-4.2c-4,0-6.6,3.1-6.6,8c0,4.8,2.6,7.8,6.8,7.8c2.9,0,4.7-1.3,5.6-4.2l2.2,0.7
		c-0.5,1.2-0.9,1.9-1.5,2.6c-1.5,1.9-3.7,2.9-6.4,2.9c-5.4,0-8.9-3.8-8.9-9.7c0-6,3.4-9.9,8.6-9.9c2.8,0,5,1,6.5,3
		c0.5,0.7,0.8,1.2,1.2,2.3L97.9,23.5z"/>
	<path class="st0" d="M117.1,34.1c-1.5,1.3-2.2,1.8-3.4,2.3c-1.1,0.4-2.4,0.7-3.6,0.7c-3.7,0-6-2-6-5.2c0-2.9,1.8-5,5.3-5.8
		c2-0.5,3.7-0.7,7.7-0.8V23c0-2.3-1.7-3.7-4.6-3.7c-2.1,0-3.6,0.5-4.5,1.7c-0.5,0.5-0.8,1-1.1,2.1l-2.3-0.5c0.6-1.6,1-2.3,1.7-3
		c1.4-1.3,3.4-2.1,6-2.1c4.4,0,6.8,1.9,6.8,5.6V33c0,1.5,0.1,2.3,0.3,3.7h-2.3V34.1z M117.1,27.1c-4.5,0.1-6.6,0.3-8.2,1.1
		c-1.7,0.8-2.6,2-2.6,3.7c0,2.1,1.6,3.4,4,3.4c2,0,4.4-1.1,5.8-2.7c0.8-0.9,1-1.6,1-3L117.1,27.1L117.1,27.1z"/>
	<path class="st0" d="M124.5,36.8c0.2-1.2,0.3-2.3,0.3-3.8V21.8c0-1.7-0.1-2.6-0.3-3.8h2.3v2.1c0,0.3,0,0.5-0.1,1.3
		c0.3-0.6,0.6-1.1,1.2-1.8c1.2-1.3,3-2,5-2c2,0,3.5,0.6,4.5,1.8c0.5,0.6,0.7,1,1,2.2c1.7-2.9,3.6-4,6.5-4c4.1,0,6.2,2.2,6.2,6.5v8.8
		c0,1.7,0.1,2.6,0.3,3.8h-2.7c0.2-1.2,0.3-2.1,0.3-3.8v-8.4c0-3.5-1.3-5-4.4-5c-3.1,0-5.7,3-5.7,6.5v7c0,1.7,0.1,2.6,0.3,3.8h-2.7
		c0.2-1.1,0.3-2.1,0.3-3.8v-8.4c0-3.2-1.5-5-4.2-5c-2,0-3.7,1-4.9,2.8c-0.6,1-1,2.5-1,3.7v7c0,1.6,0.1,2.4,0.3,3.8L124.5,36.8
		L124.5,36.8z"/>
	<path class="st0" d="M159,20c0,0.6,0,1-0.1,1.9c0.4-0.9,0.8-1.2,1.3-1.8c1.7-1.6,3.5-2.3,5.9-2.3c5.3,0,8.5,3.7,8.5,9.7
		c0,5.9-3.3,9.7-8.5,9.7c-3.2,0-5.8-1.5-7.2-4.1c0.1,1,0.2,1.7,0.2,2.7v4.8c0,1.6,0.1,2.5,0.3,3.8h-2.6c0.2-1.3,0.3-2.4,0.3-3.8
		V21.9c0-1.7-0.1-2.5-0.3-3.9h2.3L159,20L159,20z M172.5,27.5c0-5-2.3-7.8-6.4-7.8c-4.3,0-7,3-7,7.8c0,2.4,0.8,4.6,2.1,5.9
		c1.3,1.2,3,1.9,5,1.9C170.1,35.3,172.5,32.3,172.5,27.5z"/>
	<path class="st0" d="M192.8,34.2c0-0.3,0-0.9,0.1-1.6c-1.6,3-3.8,4.5-7.1,4.5c-4.1,0-6.5-2.3-6.5-6.5v-8.8c0-1.6-0.1-2.7-0.3-3.8
		h2.7c-0.2,1.1-0.3,2.3-0.3,3.8v8.4c0,3.3,1.7,5,4.6,5c2,0,3.8-1,5.2-3c0.9-1.2,1.2-2.2,1.5-3.7v-6.7c0-1.5-0.1-2.6-0.3-3.8h2.7
		c-0.2,1.1-0.3,2.3-0.3,3.8v11.1c0,1.5,0.1,2.4,0.3,3.8h-2.3V34.2z"/>
	<path class="st0" d="M201.7,31.3c0.2,1.3,0.5,2,1.2,2.7c1,0.9,2.4,1.3,4.3,1.3c3.2,0,5.2-1.4,5.2-3.6c0-1.1-0.3-1.9-1.1-2.3
		c-0.9-0.5-1.7-0.8-4.3-1.3c-2.9-0.6-4.2-1-5.3-1.9c-1-0.8-1.6-2-1.6-3.4c0-1.2,0.5-2.4,1.5-3.4c1.2-1.1,3-1.7,5.3-1.7
		s4,0.5,5.2,1.6c1,0.8,1.4,1.6,1.8,3.1l-2.3,0.4c-0.2-1-0.4-1.4-1-1.9c-0.9-1-2.3-1.4-3.8-1.4c-2.7,0-4.6,1.4-4.6,3.4
		c0,0.9,0.4,1.7,1.2,2.1c0.8,0.4,1.8,0.8,4,1.2c3.6,0.8,4.7,1.2,5.7,2.1c1,0.9,1.5,2.1,1.5,3.4c0,3.4-2.9,5.6-7.7,5.6
		c-3,0-5.4-1-6.7-2.7c-0.5-0.7-0.8-1.3-1.1-2.8L201.7,31.3z"/>
</g>
</svg>
